<?xml version="1.0" encoding="utf-8"?>
<svg version="1.1" xmlns:xlink="http://www.w3.org/1999/xlink" width="300px" height="170px" xmlns="http://www.w3.org/2000/svg">
  <g transform="matrix(1 0 0 1 -240 -151 )">
    <path d="M 240 151  L 540 151  L 540 321  L 240 321  L 240 151  " fill-rule="nonzero" fill="#cccccc" stroke="none" />
    <path d="M 252 163  L 528 163  L 528 309  L 252 309  L 252 163  " fill-rule="nonzero" fill="#ffffff" stroke="none" />
    <path d="M 408.75 202  C 401.61 202  396 196.39  396 189.25  C 396 182.11  401.61 176.5  408.75 176.5  C 415.89 176.5  421.5 182.11  421.5 189.25  C 421.5 196.39  415.89 202  408.75 202  " fill-rule="nonzero" fill="#cccccc" stroke="none" />
    <path d="M 257 305  L 257 229.65  L 323.75 195.4  L 417.2 258.42  L 470.6 215.95  L 524 258.42  L 524 305  L 257 305  " fill-rule="nonzero" fill="#169bd5" stroke="none" />
  </g>
</svg>