<?xml version="1.0" encoding="utf-8"?>
<svg version="1.1" xmlns:xlink="http://www.w3.org/1999/xlink" width="31px" height="27px" xmlns="http://www.w3.org/2000/svg">
  <g transform="matrix(1 0 0 1 -1344 -552 )">
    <path d="M 21.91796875 16.875  C 21.91796875 17.02734375  21.8603050595238 17.162109375  21.7449776785714 17.279296875  L 19.2193080357143 19.845703125  C 19.1039806547619 19.962890625  18.9713541666667 20.021484375  18.8214285714286 20.021484375  C 18.6715029761905 20.021484375  18.5388764880952 19.962890625  18.4235491071429 19.845703125  L 15.5 16.875  L 12.5764508928571 19.845703125  C 12.4611235119048 19.962890625  12.3284970238095 20.021484375  12.1785714285714 20.021484375  C 12.0286458333333 20.021484375  11.8960193452381 19.962890625  11.7806919642857 19.845703125  L 9.25502232142857 17.279296875  C 9.13969494047619 17.162109375  9.08203125 17.02734375  9.08203125 16.875  C 9.08203125 16.72265625  9.13969494047619 16.587890625  9.25502232142857 16.470703125  L 12.1785714285714 13.5  L 9.25502232142857 10.529296875  C 9.13969494047619 10.412109375  9.08203125 10.27734375  9.08203125 10.125  C 9.08203125 9.97265625  9.13969494047619 9.837890625  9.25502232142857 9.720703125  L 11.7806919642857 7.154296875  C 11.8960193452381 7.037109375  12.0286458333333 6.978515625  12.1785714285714 6.978515625  C 12.3284970238095 6.978515625  12.4611235119048 7.037109375  12.5764508928571 7.154296875  L 15.5 10.125  L 18.4235491071429 7.154296875  C 18.5388764880952 7.037109375  18.6715029761905 6.978515625  18.8214285714286 6.978515625  C 18.9713541666667 6.978515625  19.1039806547619 7.037109375  19.2193080357143 7.154296875  L 21.7449776785714 9.720703125  C 21.8603050595238 9.837890625  21.91796875 9.97265625  21.91796875 10.125  C 21.91796875 10.27734375  21.8603050595238 10.412109375  21.7449776785714 10.529296875  L 18.8214285714286 13.5  L 21.7449776785714 16.470703125  C 21.8603050595238 16.587890625  21.91796875 16.72265625  21.91796875 16.875  Z M 5 5  L 5 22  L 26 22  L 26 5  L 5 5  Z M 30.1869419642857 0.826171875000001  C 30.7289806547619 1.376953125  31 2.0390625  31 2.8125  L 31 24.1875  C 31 24.9609375  30.7289806547619 25.623046875  30.1869419642857 26.173828125  C 29.6449032738095 26.724609375  28.9933035714286 27  28.2321428571429 27  L 2.76785714285714 27  C 2.00669642857143 27  1.35509672619048 26.724609375  0.813058035714286 26.173828125  C 0.271019345238095 25.623046875  0 24.9609375  0 24.1875  L 0 2.8125  C 0 2.0390625  0.271019345238095 1.376953125  0.813058035714286 0.826171875000001  C 1.35509672619048 0.275390624999997  2.00669642857143 0  2.76785714285714 0  L 28.2321428571429 0  C 28.9933035714286 0  29.6449032738095 0.275390624999997  30.1869419642857 0.826171875000001  Z " fill-rule="nonzero" fill="#000000" stroke="none" transform="matrix(1 0 0 1 1344 552 )" />
  </g>
</svg>